<svg width="104" height="104" viewBox="0 0 104 104" fill="none" xmlns="http://www.w3.org/2000/svg">
<path d="M10.4215 68C6.33744 71.1376 4 74.7808 4 78.6667C4 90.4485 25.4903 100 52 100C78.5099 100 100 90.4485 100 78.6667C100 74.7808 97.6624 71.1376 93.5787 68" stroke="#48AFFF" stroke-width="8" stroke-linecap="round" stroke-linejoin="round"/>
<path d="M52 78.6667C69.6731 70.3701 84 55.5131 84 37.1852C84 18.8575 69.6731 4 52 4C34.3269 4 20 18.8575 20 37.1852C20 55.5131 34.3269 70.3701 52 78.6667Z" stroke="#48AFFF" stroke-width="8" stroke-linecap="round" stroke-linejoin="round"/>
<path d="M52 22.6666V49.3333" stroke="#48AFFF" stroke-width="8" stroke-linecap="round" stroke-linejoin="round"/>
<path d="M38.667 36H65.3337" stroke="#48AFFF" stroke-width="8" stroke-linecap="round" stroke-linejoin="round"/>
</svg>
