<svg width="98" height="99" viewBox="0 0 98 99" fill="none" xmlns="http://www.w3.org/2000/svg">
<path d="M91 0.5H49C47.1441 0.501853 45.3647 1.23995 44.0523 2.5523C42.7399 3.86465 42.0019 5.64405 42 7.5V42.5H7C5.14405 42.5019 3.36465 43.2399 2.0523 44.5523C0.739946 45.8647 0.00185317 47.6441 0 49.5V98.5H98V7.5C97.9981 5.64405 97.2601 3.86465 95.9477 2.5523C94.6354 1.23995 92.8559 0.501853 91 0.5ZM24.5 91.5V67H38.5V91.5H24.5ZM91 91.5H45.5V63.5C45.5 62.5717 45.1312 61.6815 44.4749 61.0251C43.8185 60.3687 42.9283 60 42 60H21C20.0717 60 19.1815 60.3687 18.5251 61.0251C17.8687 61.6815 17.5 62.5717 17.5 63.5V91.5H7V49.5H49V7.5H91V91.5Z" fill="#48AFFF"/>
<path d="M56.3711 20.4469H63.3091V27.5088H56.3711V20.4469ZM77.1853 20.4469H84.1233V27.5088H77.1853V20.4469ZM56.3711 41.6327H63.3091V48.6947H56.3711V41.6327ZM77.1853 41.6327H84.1233V48.6947H77.1853V41.6327ZM56.3711 62.8186H63.3091V69.8805H56.3711V62.8186ZM77.1853 62.8186H84.1233V69.8805H77.1853V62.8186Z" fill="#48AFFF"/>
</svg>
